<svg id="Layer_1" data-name="Layer 1" xmlns="http://www.w3.org/2000/svg" viewBox="0 0 748.99 77.06"><defs><style>.cls-1{fill:#fff;}</style></defs><title>logo</title><path class="cls-1" d="M95.67,75.62c1.11.44,1,2.77-.22,3.21-4.76-.22-9.08-.33-13.5-.33-5.21,0-10,.11-14.83.33-.89-.44-1.33-2.55-.22-3.21l3-.55c4.43-.66,4.76-1.55,4.76-9.08V20.72h-.22c-3,6.08-4.54,9.4-6.64,13.84L58.26,54C54.49,61.78,49,74.07,47,79.28a3.35,3.35,0,0,1-2.88,0c-1.88-6-6.64-16.83-9.19-22.37L25.05,35.66C23,31,20,24,18.63,20.72h-.22c-.22,5.42-.44,14.06-.67,18.71-.22,6.74-.43,16.6-.43,25.67,0,7.31.1,9.08,4.86,9.86l3.66.66c.77.66.77,2.77-.11,3.21-4.1-.22-7.53-.33-11.63-.33-3.54,0-7.53.11-11.84.33-1-.55-1-2.65-.33-3.21L3.8,75.4c5.31-.67,6.2-2.33,6.86-9.08.89-7,1.11-14.17,1.66-25.68.44-7.52,1.11-16.71,1.11-23.46,0-5.21-1.66-7.54-6-8.2L3.69,8.32c-.67-.78-.55-2.88.44-3.21,3.32.22,6.31.33,10.41.33,3.87,0,7.75,0,11.84-.33.44,6.64,3.32,12.4,6.09,18.37L44.64,49.06c.89,1.87,3.77,7.41,5.21,10,1.77-3.21,3.32-6.31,5.75-11.51L66,26.25c3.54-7.3,7.08-13.84,9-21.14,3,.22,6.64.33,9.08.33q7,0,11.62-.33A1.92,1.92,0,0,1,96,8.32l-3.65.55c-4.87.67-6,2.55-6,8.42,0,16.38.23,32.76,1,49.15.33,7.41,1.55,8.19,5.09,8.63Z" transform="translate(-1.45 -3.67)"/><path class="cls-1" d="M151.89,6a7.16,7.16,0,0,1,2.21,5.65c0,3.54-1.88,5.2-2.76,5.2a2.42,2.42,0,0,1-2.11-1.22c-2.43-3.21-5.75-6.75-10.07-6.75-6.31,0-12.84,6.2-12.84,16.6,0,9,5.76,17.49,15.83,17.49,7.19,0,9.74-2.66,11.95-5.87a2.19,2.19,0,0,1,2.33,2c-4,9-12.51,12.06-19.48,12.06a22.53,22.53,0,0,1-15.39-6,22.23,22.23,0,0,1-6.42-15.93c0-13,9.41-24.8,27.23-24.8A28.06,28.06,0,0,1,151.89,6" transform="translate(-1.45 -3.67)"/><path class="cls-1" d="M184.65,22c0-10.62-.12-11.95-5.32-12.61L177,9.21a2.23,2.23,0,0,1,.11-3.1c8-.67,16.82-1,27.67-1,10.52,0,18.05.88,26.12,3.76,13.29,4.87,22.7,16.61,22.7,33.1a35.09,35.09,0,0,1-19.82,31.88c-7.85,4-17.37,5.32-27.45,5.32-6.75,0-12-.67-16.05-.67s-9.18.11-14.06.33c-.88-.44-1-2.43-.22-3.21l2.44-.33c5.2-.66,6.2-1,6.2-12.73Zm12.84,36.2c0,10.74.77,16.5,12.5,16.5,19.71,0,28.56-13.95,28.56-32.66,0-21.92-12.73-32.54-31.21-32.54-4.65,0-8.19.88-9,1.55s-.88,3-.88,8.19Z" transform="translate(-1.45 -3.67)"/><path class="cls-1" d="M350.76,42.19c0,21.81-16.61,38.08-39,38.08-25,0-39.4-17.6-39.4-37.3,0-22.58,16.38-39.3,39.62-39.3,25.57,0,38.75,18.38,38.75,38.52m-63.32-2.43c0,15.27,6.53,36.08,25.46,36.08,12.62,0,22.8-9.4,22.8-31.66,0-16.71-7.53-36.08-25.13-36.08-11.06,0-23.13,8.08-23.13,31.66" transform="translate(-1.45 -3.67)"/><path class="cls-1" d="M441.94,59.68c0,3.32,0,16.94.33,19.49a4.26,4.26,0,0,1-3.76,1.55c-1.78-2.33-5-6.09-12.95-15.17L399.65,36c-7.2-8.08-10.73-12.28-12.62-14-.33,0-.33,1.23-.33,7.09V50.71c0,8.31.11,18.49,2,21.81,1,1.66,2.87,2.32,5.64,2.77l2.44.33c1,.78.88,2.88-.22,3.21-4.11-.22-8.42-.33-12.63-.33-4.64,0-7.64.11-11.51.33a2.28,2.28,0,0,1-.22-3.21l2.44-.56c2.1-.32,4.09-.77,4.87-2.54,1.43-3.43,1.43-13.06,1.43-21.81V24.48c0-8.64.12-10.4-3.65-13.62-1.21-1-4.31-1.88-5.86-2.21l-1.66-.33c-.78-.66-.67-2.88.44-3.21,4.21.44,10.29.33,13.06.33,2.33,0,5-.11,7.64-.33,1.88,4.76,13.94,18.7,17.82,22.91L419.8,40c4.65,5.09,14.94,16.82,16.05,17.49.33-.34.33-.89.33-2.66V33.22c0-8.3-.11-18.48-2.1-21.8-1-1.66-2.77-2.33-5.54-2.77L426,8.32c-1-.78-.89-2.88.22-3.21,4.31.22,8.41.33,12.73.33,4.76,0,7.63-.11,11.62-.33a2.26,2.26,0,0,1,.22,3.21l-2.54.55c-2.11.34-4,.78-4.76,2.55-1.55,3.43-1.55,13.06-1.55,21.8Z" transform="translate(-1.45 -3.67)"/><path class="cls-1" d="M549.73,42.19c0,21.81-16.61,38.08-39,38.08-25,0-39.41-17.6-39.41-37.3,0-22.58,16.39-39.3,39.63-39.3,25.57,0,38.75,18.38,38.75,38.52m-63.32-2.43c0,15.27,6.53,36.08,25.46,36.08,12.62,0,22.8-9.4,22.8-31.66,0-16.71-7.53-36.08-25.12-36.08-11.07,0-23.14,8.08-23.14,31.66" transform="translate(-1.45 -3.67)"/><path class="cls-1" d="M639.58,67c0,3.87.56,6.75,2.66,7.75a1.34,1.34,0,0,1-.11,1.66,24,24,0,0,0-5.32.88c-6.86,1.55-15.16,3-21.47,3-13.28,0-25.79-3.54-34.1-12.18-6.53-6.75-9.73-16.05-9.73-25.35a37.16,37.16,0,0,1,10.18-26C589.55,8.43,601.61,3.67,617,3.67a79.87,79.87,0,0,1,14.72,1.66,45,45,0,0,0,7.08,1c.12,3.32.89,9,1.44,17.6-.55,1.1-3,1.21-3.54.22-2.43-10.74-10.29-16-21.25-16C596,8.1,586.56,22.16,586.56,41c0,8.86,2,18.38,8,25.47s14.83,9.4,21.36,9.4c5.31,0,8.53-.88,9.85-2.55.67-1,1-3,1-7v-4c0-7.85-.11-8.52-7.53-9.73l-4-.67c-.78-.77-.78-2.65.11-3.21,4.32.22,9.63.34,17.27.34,5,0,8.74-.12,13.5-.34a2,2,0,0,1,.22,3.21l-2,.33c-4.1.55-4.76,1.55-4.76,8.3Z" transform="translate(-1.45 -3.67)"/><path class="cls-1" d="M696.57,43.08c-5.64,0-6,.22-6,3.21V62.56c0,11.73,1,12.07,6.2,12.62l3.33.44c.77.78.66,2.77-.22,3.21-5.76-.22-10.75-.33-15.61-.33s-9.85.11-14.06.33c-.88-.44-1-2.43-.22-3.21l1.55-.22c5.2-.77,6.19-1.11,6.19-12.84V21.38c0-11.74-1-12.06-6.19-12.73l-2.44-.33c-.77-.55-.66-2.77.23-3.21,4.87.22,10.07.33,14.94.33s9.85-.11,14.16-.33c.89.44,1,2.66.23,3.21l-1.89.33c-5.2.67-6.2,1-6.2,12.73v13.4c0,3.09.34,3.31,6,3.31h25.91c5.64,0,6-.22,6-3.31V21.38c0-11.74-1-12.06-6.2-12.73l-2.43-.33c-.77-.55-.67-2.77.22-3.21q7.63.33,15,.33c4.87,0,9.85-.11,14.27-.33.89.44,1,2.66.23,3.21l-2,.33c-5.2.67-6.2,1-6.2,12.73V62.56c0,11.73,1,12.07,6.2,12.73l2.44.33c.78.78.66,2.77-.22,3.21-4.87-.22-9.85-.33-14.72-.33q-7.65,0-15,.33c-.89-.44-1-2.43-.22-3.21l2.43-.33c5.2-.66,6.2-1,6.2-12.73V46.29c0-3-.33-3.21-6-3.21Z" transform="translate(-1.45 -3.67)"/><polygon class="cls-1" points="144.24 75.14 110.17 75.14 121.69 67.28 155.76 67.28 144.24 75.14"/></svg>