<svg width="250" height="26" viewBox="0 0 250 26" fill="none" xmlns="http://www.w3.org/2000/svg">
<path d="M31.3394 24.1C31.7394 24.2 31.6394 25 31.2394 25.2C29.6394 25.1 28.2394 25.1 26.7394 25.1C25.0394 25.1 23.4394 25.1 21.8394 25.2C21.5394 25.1 21.4394 24.4 21.7394 24.1L22.7394 23.9C24.2394 23.7 24.3394 23.4 24.3394 20.9V9.2V5.8H24.2394C23.2394 7.8 22.7394 8.9 22.0394 10.4L18.8394 16.9C17.5394 19.5 15.7394 23.6 15.0394 25.3C14.9394 25.4 14.3394 25.4 14.0394 25.3C13.4394 23.3 11.8394 19.7 10.9394 17.8L7.63939 10.7C6.93939 9.2 5.93939 6.8 5.53939 5.7H5.63939C5.53939 7.5 5.53939 10.4 5.43939 11.9C5.33939 14.2 5.23939 17.5 5.23939 20.6C5.23939 23 5.23939 23.6 6.83939 23.9L8.03939 24.1C8.33939 24.3 8.33939 25 8.03939 25.2C6.63939 25.1 5.53939 25.1 4.13939 25.1C2.93939 25.1 1.63939 25.1 0.239388 25.2C-0.0606123 25 -0.0606123 24.3 0.139388 24.1L0.739388 24C2.53939 23.8 2.83939 23.2 3.03939 21C3.33939 18.7 3.43939 16.3 3.63939 12.4C3.73939 9.9 4.03939 6.8 4.03939 4.6C4.03939 2.9 3.43939 2.1 2.03939 1.9L0.739388 1.6C0.539388 1.3 0.539388 0.6 0.839388 0.5C1.93939 0.6 2.93939 0.6 4.33939 0.6C5.63939 0.6 6.93939 0.6 8.23939 0.5C8.33939 2.7 9.33939 4.6 10.2394 6.6L14.3394 15.1C14.6394 15.7 15.6394 17.6 16.0394 18.4C16.6394 17.3 17.1394 16.3 17.9394 14.6L21.4394 7.5C22.6394 5.1 23.8394 2.9 24.4394 0.5C25.4394 0.6 26.6394 0.6 27.4394 0.6C28.9394 0.6 30.2394 0.6 31.3394 0.5C31.7394 0.6 31.8394 1.3 31.4394 1.6L30.2394 1.8C28.6394 2 28.2394 2.6 28.2394 4.6C28.2394 10.1 28.3394 15.5 28.5394 21C28.6394 23.5 29.0394 23.7 30.2394 23.9L31.3394 24.1Z" fill="#EA7200"/>
<path d="M50.1394 0.899997C50.6394 1.3 50.8394 1.9 50.8394 2.8C50.8394 4 50.2394 4.5 49.9394 4.5C49.6394 4.5 49.5394 4.4 49.2394 4.1C48.4394 3 47.3394 1.8 45.8394 1.8C43.7394 1.8 41.5394 3.9 41.5394 7.3C41.5394 10.3 43.4394 13.1 46.8394 13.1C49.2394 13.1 50.0394 12.2 50.8394 11.1C51.1394 11.1 51.5394 11.3 51.6394 11.8C50.3394 14.8 47.4394 15.8 45.1394 15.8C43.1394 15.8 41.2394 15 40.0394 13.8C38.7394 12.5 37.9394 10.6 37.9394 8.5C37.9394 4.2 41.0394 0.199997 47.0394 0.199997C48.0394 0.399997 49.0394 0.499997 50.1394 0.899997Z" fill="#EA7200"/>
<path d="M61.0394 6.2C61.0394 2.7 61.0394 2.2 59.2394 2L58.4394 1.9C58.1394 1.7 58.1394 1.1 58.4394 0.899998C61.1394 0.699998 64.0394 0.599998 67.6394 0.599998C71.1394 0.599998 73.6394 0.899998 76.3394 1.9C80.7394 3.5 83.9394 7.4 83.9394 12.9C83.9394 17 81.9394 21.2 77.3394 23.5C74.7394 24.8 71.5394 25.3 68.1394 25.3C65.8394 25.3 64.1394 25.1 62.7394 25.1C61.3394 25.1 59.6394 25.1 58.0394 25.2C57.7394 25.1 57.7394 24.4 57.9394 24.1L58.7394 24C60.4394 23.8 60.8394 23.7 60.8394 19.8V6.2H61.0394ZM65.3394 18.3C65.3394 21.9 65.6394 23.8 69.5394 23.8C76.1394 23.8 79.0394 19.2 79.0394 12.9C79.0394 5.6 74.8394 2.1 68.6394 2.1C67.1394 2.1 65.9394 2.4 65.6394 2.6C65.3394 2.8 65.3394 3.6 65.3394 5.3V18.3Z" fill="#EA7200"/>
<path d="M116.339 12.9C116.339 20.2 110.839 25.6 103.339 25.6C95.0394 25.6 90.2394 19.7 90.2394 13.2C90.2394 5.7 95.7394 0.0999985 103.439 0.0999985C112.039 0.0999985 116.339 6.2 116.339 12.9ZM95.2394 12.1C95.2394 17.2 97.4394 24.1 103.739 24.1C107.939 24.1 111.339 21 111.339 13.5C111.339 7.9 108.839 1.5 102.939 1.5C99.3394 1.6 95.2394 4.3 95.2394 12.1Z" fill="#EA7200"/>
<path d="M146.739 18.8C146.739 19.9 146.739 24.4 146.839 25.3C146.539 25.7 146.039 25.9 145.539 25.8C144.939 25 143.839 23.8 141.239 20.7L132.639 10.8C130.239 8.1 129.039 6.7 128.439 6.2C128.339 6.2 128.339 6.6 128.339 8.6V15.8C128.339 18.6 128.339 22 129.039 23.1C129.339 23.7 130.039 23.9 130.939 24L131.739 24.1C132.039 24.4 132.039 25.1 131.639 25.2C130.239 25.1 128.839 25.1 127.439 25.1C125.939 25.1 124.939 25.1 123.639 25.2C123.339 25 123.239 24.4 123.539 24.1L124.339 23.9C125.039 23.8 125.739 23.6 125.939 23.1C126.439 22 126.439 18.7 126.439 15.8V7.1C126.439 4.2 126.439 3.6 125.239 2.6C124.839 2.3 123.839 2 123.239 1.9L122.639 1.8C122.339 1.6 122.439 0.799999 122.739 0.699999C124.139 0.799999 126.139 0.799999 127.139 0.799999C127.939 0.799999 128.839 0.799999 129.639 0.699999C130.239 2.3 134.239 6.9 135.539 8.3L139.239 12.3C140.739 14 144.239 17.9 144.639 18.1C144.739 18 144.739 17.8 144.739 17.2V10C144.739 7.2 144.739 3.8 144.039 2.7C143.739 2.1 143.139 1.9 142.239 1.8L141.439 1.7C141.139 1.4 141.139 0.699998 141.539 0.599998C142.939 0.699998 144.339 0.699999 145.739 0.699999C147.339 0.699999 148.239 0.699998 149.639 0.599998C149.939 0.799998 150.039 1.4 149.739 1.7L148.839 1.8C148.139 1.9 147.539 2.1 147.239 2.6C146.739 3.7 146.739 7 146.739 9.9V18.8Z" fill="#EA7200"/>
<path d="M182.739 12.9C182.739 20.2 177.239 25.6 169.739 25.6C161.439 25.6 156.639 19.7 156.639 13.2C156.639 5.7 162.139 0.0999985 169.839 0.0999985C178.339 0.0999985 182.739 6.2 182.739 12.9ZM161.639 12.1C161.639 17.2 163.839 24.1 170.139 24.1C174.339 24.1 177.739 21 177.739 13.5C177.739 7.9 175.239 1.5 169.339 1.5C165.639 1.6 161.639 4.3 161.639 12.1Z" fill="#EA7200"/>
<path d="M212.639 21.2C212.639 22.5 212.839 23.5 213.539 23.8C213.639 23.9 213.639 24.2 213.539 24.4C213.139 24.4 212.439 24.5 211.739 24.7C209.439 25.2 206.639 25.7 204.539 25.7C200.139 25.7 195.939 24.5 193.139 21.6C190.939 19.3 189.939 16.3 189.939 13.1C189.939 10 191.039 6.8 193.339 4.4C195.939 1.6 199.939 0 205.139 0C206.839 0 208.739 0.3 210.039 0.6C210.839 0.8 211.939 0.9 212.439 0.9C212.439 2 212.739 3.9 212.939 6.8C212.739 7.2 211.939 7.2 211.739 6.9C210.939 3.3 208.339 1.5 204.639 1.5C198.139 1.5 195.039 6.2 195.039 12.5C195.039 15.5 195.739 18.6 197.739 21C199.739 23.4 202.639 24.1 204.839 24.1C206.639 24.1 207.639 23.8 208.139 23.3C208.339 23 208.439 22.3 208.439 21V19.7C208.439 17.1 208.439 16.9 205.939 16.5L204.639 16.3C204.339 16 204.339 15.4 204.639 15.2C206.039 15.3 207.839 15.3 210.439 15.3C212.139 15.3 213.339 15.3 214.939 15.2C215.339 15.4 215.339 16 215.039 16.3L214.339 16.4C212.939 16.6 212.739 16.9 212.739 19.2V21.2H212.639Z" fill="#EA7200"/>
<path d="M231.639 13.2C229.739 13.2 229.639 13.3 229.639 14.3V19.7C229.639 23.6 229.939 23.7 231.739 23.9L232.839 24C233.139 24.3 233.039 24.9 232.739 25.1C230.839 25 229.139 25 227.539 25C225.939 25 224.239 25 222.839 25.1C222.539 25 222.539 24.3 222.739 24L223.239 23.9C224.939 23.6 225.339 23.5 225.339 19.6V6C225.339 2.1 225.039 2 223.239 1.8L222.439 1.7C222.139 1.5 222.239 0.799998 222.539 0.599998C224.139 0.699998 225.939 0.699999 227.539 0.699999C229.139 0.699999 230.839 0.699998 232.239 0.599998C232.539 0.699998 232.539 1.5 232.339 1.7L231.739 1.8C230.039 2 229.639 2.1 229.639 6V10.5C229.639 11.5 229.739 11.6 231.639 11.6H240.239C242.139 11.6 242.239 11.5 242.239 10.5V6C242.239 2.1 241.939 2 240.139 1.8L239.339 1.7C239.039 1.5 239.139 0.799998 239.439 0.599998C241.139 0.699998 242.839 0.699999 244.439 0.699999C246.039 0.699999 247.739 0.699998 249.239 0.599998C249.539 0.699998 249.539 1.5 249.339 1.7L248.639 1.8C246.939 2 246.539 2.1 246.539 6V19.7C246.539 23.6 246.839 23.7 248.639 23.9L249.439 24C249.739 24.3 249.639 24.9 249.339 25.1C247.739 25 246.039 25 244.439 25C242.739 25 241.039 25 239.439 25.1C239.139 25 239.139 24.3 239.339 24L240.139 23.9C241.839 23.7 242.239 23.6 242.239 19.7V14.3C242.239 13.3 242.139 13.2 240.239 13.2H231.639Z" fill="#EA7200"/>
<path d="M48.0394 25.1H36.6394L40.5394 22.5H51.8394L48.0394 25.1Z" fill="#EA7200"/>
</svg>
